<svg width="28" height="28" viewBox="0 0 28 28" fill="none" xmlns="http://www.w3.org/2000/svg">
<path d="M6.58773 4.40258C6.30444 4.13762 5.92975 3.99338 5.5426 4.00023C5.15545 4.00709 4.78606 4.16451 4.51226 4.43934C4.23845 4.71417 4.08162 5.08494 4.07479 5.47354C4.06796 5.86214 4.21166 6.23823 4.47564 6.52258L11.8879 13.9626L4.47564 21.4026C4.32881 21.5399 4.21105 21.7055 4.12937 21.8895C4.04769 22.0735 4.00377 22.2721 4.00023 22.4735C3.99669 22.6749 4.0336 22.875 4.10876 23.0618C4.18392 23.2486 4.2958 23.4182 4.4377 23.5607C4.57961 23.7031 4.74864 23.8154 4.93472 23.8908C5.1208 23.9663 5.32012 24.0033 5.52077 23.9998C5.72143 23.9962 5.91931 23.9521 6.10263 23.8701C6.28594 23.7882 6.45092 23.67 6.58773 23.5226L14 16.0826L21.4123 23.5226C21.5491 23.67 21.7141 23.7882 21.8974 23.8701C22.0807 23.9521 22.2786 23.9962 22.4792 23.9998C22.6799 24.0033 22.8792 23.9663 23.0653 23.8908C23.2514 23.8154 23.4204 23.7031 23.5623 23.5607C23.7042 23.4182 23.8161 23.2486 23.8912 23.0618C23.9664 22.875 24.0033 22.6749 23.9998 22.4735C23.9962 22.2721 23.9523 22.0735 23.8706 21.8895C23.789 21.7055 23.6712 21.5399 23.5244 21.4026L16.1121 13.9626L23.5244 6.52258C23.7883 6.23823 23.932 5.86214 23.9252 5.47354C23.9184 5.08494 23.7615 4.71417 23.4877 4.43934C23.2139 4.16451 22.8446 4.00709 22.4574 4.00023C22.0702 3.99338 21.6956 4.13762 21.4123 4.40258L14 11.8426L6.58773 4.40258Z" fill="#0A0A0A"/>
</svg>
