<svg width="41" height="40" viewBox="0 0 41 40" fill="none" xmlns="http://www.w3.org/2000/svg">
<path d="M31.3 7.99984H13.3C12.6635 7.99984 12.053 8.2527 11.6029 8.70278C11.1529 9.15287 10.9 9.76332 10.9 10.3998V13.9998H8.5V16.3998H10.9V18.7998H8.5V21.1998H10.9V23.5998H8.5V25.9998H10.9V29.5998C10.9 30.2364 11.1529 30.8468 11.6029 31.2969C12.053 31.747 12.6635 31.9998 13.3 31.9998H31.3C31.6183 31.9998 31.9235 31.8734 32.1485 31.6484C32.3736 31.4233 32.5 31.1181 32.5 30.7998V9.19984C32.5 8.88158 32.3736 8.57636 32.1485 8.35131C31.9235 8.12627 31.6183 7.99984 31.3 7.99984ZM21.7 11.5986C23.6776 11.5986 25.3 13.2198 25.3 15.1986C25.2965 16.1525 24.9162 17.0662 24.2418 17.7408C23.5675 18.4154 22.6538 18.796 21.7 18.7998C19.7236 18.7998 18.1 17.1762 18.1 15.1986C18.1 13.2198 19.7236 11.5986 21.7 11.5986ZM28.9 27.1998H14.5V26.2998C14.5 23.637 17.746 20.8998 21.7 20.8998C25.654 20.8998 28.9 23.637 28.9 26.2998V27.1998Z" fill="#A2A0A0"/>
</svg>
