<svg width="39" height="40" viewBox="0 0 39 40" fill="none" xmlns="http://www.w3.org/2000/svg">
<path d="M30.994 24.1683L32.419 22.6686C32.6416 22.4342 33.0291 22.5983 33.0291 22.9357V29.7503C33.0291 30.9923 32.0716 32 30.8915 32H15.2162C14.0361 32 13.0786 30.9923 13.0786 29.7503V13.2527C13.0786 12.0107 14.0361 11.0031 15.2162 11.0031H27.3958C27.7119 11.0031 27.8722 11.4061 27.6496 11.6452L26.2246 13.1449C26.1578 13.2153 26.0687 13.2527 25.9707 13.2527H15.2162V29.7503H30.8915V24.4308C30.8915 24.3324 30.9272 24.2386 30.994 24.1683ZM37.9677 14.7103L26.2735 27.0179L22.2478 27.4866C21.0811 27.6225 20.088 26.5867 20.2172 25.3494L20.6625 21.1125L32.3566 8.80496C33.3764 7.73168 35.0241 7.73168 36.0395 8.80496L37.9632 10.8297C38.983 11.9029 38.983 13.6418 37.9677 14.7103ZM33.5679 16.1586L30.9806 13.4355L22.7065 22.1483L22.3814 25.2088L25.2894 24.8667L33.5679 16.1586ZM36.4536 12.4232L34.5298 10.3985C34.3472 10.2063 34.0489 10.2063 33.8707 10.3985L32.4947 11.8467L35.082 14.5697L36.4581 13.1215C36.6362 12.9247 36.6362 12.6153 36.4536 12.4232Z" fill="#A2A0A0"/>
</svg>
