<svg width="41" height="40" viewBox="0 0 41 40" fill="none" xmlns="http://www.w3.org/2000/svg">
<path d="M17.6428 12.5713H22.2143V10.2856H17.6428V12.5713ZM26.7857 31.9998C25.2048 31.9998 23.8573 31.4429 22.7434 30.329C21.6288 29.2143 21.0714 27.8665 21.0714 26.2856C21.0714 24.7046 21.6288 23.3568 22.7434 22.2421C23.8573 21.1282 25.2048 20.5713 26.7857 20.5713C28.3667 20.5713 29.7145 21.1282 30.8291 22.2421C31.943 23.3568 32.5 24.7046 32.5 26.2856C32.5 27.8665 31.943 29.2143 30.8291 30.329C29.7145 31.4429 28.3667 31.9998 26.7857 31.9998ZM28.6714 28.9713L29.4714 28.1713L27.3571 26.057V22.857H26.2143V26.5141L28.6714 28.9713ZM19.5571 29.7141H10.7857C10.1571 29.7141 9.61923 29.4905 9.17199 29.0433C8.72399 28.5953 8.49999 28.057 8.49999 27.4284V14.857C8.49999 14.2284 8.72399 13.6905 9.17199 13.2433C9.61923 12.7953 10.1571 12.5713 10.7857 12.5713H15.3571V10.2856C15.3571 9.65698 15.5811 9.1187 16.0291 8.6707C16.4764 8.22346 17.0143 7.99984 17.6428 7.99984H22.2143C22.8428 7.99984 23.3811 8.22346 23.8291 8.6707C24.2764 9.1187 24.5 9.65698 24.5 10.2856V12.5713H29.0714C29.7 12.5713 30.2383 12.7953 30.6863 13.2433C31.1335 13.6905 31.3571 14.2284 31.3571 14.857V19.7427C30.6905 19.2665 29.9667 18.9046 29.1857 18.657C28.4048 18.4094 27.6048 18.2856 26.7857 18.2856C24.5571 18.2856 22.6669 19.0616 21.1149 20.6136C19.5621 22.1663 18.7857 24.057 18.7857 26.2856C18.7857 26.8951 18.8478 27.4856 18.972 28.057C19.0954 28.6284 19.2905 29.1808 19.5571 29.7141Z" fill="#1D1A1A"/>
</svg>
