<svg width="36" height="40" viewBox="0 0 36 40" fill="none" xmlns="http://www.w3.org/2000/svg">
<path d="M12.3154 33.766C12.2767 34.3604 12.2415 34.8845 12.2028 35.5C11.0588 35.0111 9.86897 34.7297 10.2843 33.0836C10.4568 32.4048 9.76337 32.2078 9.36912 31.8913C2.24091 26.1722 2.65277 15.2195 10.1999 10.1371C11.7839 9.07135 13.5158 8.35031 15.4061 8.04079C15.9482 7.95286 16.4938 7.92472 16.4586 7.13334C16.4445 6.80272 16.7297 6.40175 17.0183 6.50024C18.275 6.92934 18.0532 6.0043 18.3771 5.32547C18.7643 4.5165 19.9224 4.32306 20.5842 4.65368C21.8197 5.26568 23.2172 4.85064 24.4387 5.67016C25.6214 6.46506 26.952 6.82031 27.6032 8.4101C27.8849 9.09597 28.786 10.0245 29.8104 10.3622C30.4017 10.5591 30.3912 11.1008 30.5953 11.5932C31.2501 13.1514 30.1588 15.0366 31.5739 16.4189C31.8133 16.651 31.8414 17.0766 31.6232 17.2982C30.6798 18.2619 31.0846 19.3839 31.1445 20.4848C31.6619 30.1854 22.5202 37.1109 13.2694 34.0403C12.9807 33.9454 12.6815 33.8715 12.3154 33.766ZM21.9359 21.3606L21.964 21.3255C22.133 21.2973 22.3055 21.2657 22.4745 21.2375L22.5026 21.336C22.4639 21.6068 22.4217 21.8812 22.7103 22.0571C23.5199 21.9621 23.7311 22.8203 24.3225 23.158C24.4035 22.4545 24.4598 21.846 24.0937 21.2938C24.5478 21.3184 25.0089 21.431 25.4454 21.1988C25.889 21.6948 26.16 22.3982 27.033 22.5846C27.121 21.431 26.2586 20.7135 25.9734 19.4261C26.9872 20.4919 27.9588 20.316 28.9338 20.214C29.2225 20.1824 29.5745 20.4215 29.7576 20.0452C29.9195 19.7075 29.666 19.4648 29.4478 19.2292C29.2471 19.0146 28.8634 18.9619 28.8494 18.4519C30.2398 19.0955 30.7291 17.759 30.708 17.1505C30.6657 15.9898 29.1169 16.7671 28.5713 16.0742C29.0817 15.8456 29.7716 16.0179 30.2222 15.522C29.9758 14.808 29.1345 15.114 28.8001 14.5934C29.2436 14.1432 30.0004 14.1292 30.2222 13.5734C30.6165 12.5781 29.3633 12.979 29.1451 12.4831C29.3246 12.0153 30.1764 11.5405 29.7118 11.2767C29.0641 10.9074 28.434 9.98584 27.4554 10.6893C27.4061 10.1969 27.8813 9.8557 27.5856 9.55321C27.2864 9.25073 26.9274 9.61301 26.593 9.68335C26.3853 9.72556 26.1635 9.70094 25.9453 9.70445L25.9594 9.71852C25.7834 9.02914 27.2829 8.76535 26.3078 7.72424C25.6602 7.02782 24.9315 7.471 24.3366 7.05948C23.4742 6.46155 23.6431 7.92121 22.9321 7.80162C22.8793 7.15093 23.2911 6.45803 22.9708 5.79678C22.214 5.75458 22.3583 6.69017 21.7634 6.757C21.8268 5.56816 20.2709 6.34196 20.2498 5.3712C19.6689 5.52947 20.1618 7.09465 18.9156 6.05354C19.0142 7.00672 19.0952 7.82976 19.1937 8.76887C18.3771 8.47342 18.1694 7.53431 17.1309 7.37955C17.5393 8.23776 17.8948 8.89549 18.1659 9.58839C18.3207 9.98584 18.9544 10.334 18.4017 10.8722C18.0849 10.8616 18.0849 11.4138 17.659 11.2591C16.5959 10.8757 16.9197 11.7234 16.8458 12.2087C16.4269 12.1032 16.1172 12.2826 16.0221 12.6695C15.9482 12.9649 16.2544 13.0951 16.4797 13.2463C17.0183 13.6121 17.5428 14.0025 18.0743 14.3824C18.2644 14.6321 18.1518 14.8924 18.099 15.1527C17.8138 15.4411 17.8807 15.7119 18.1412 15.9687L18.1025 15.9898L18.1307 15.9581C18.8312 16.3239 18.6481 17.8961 20.021 17.3474C20.0386 17.6077 20.0562 17.8645 20.0702 18.1248C19.8203 18.4976 19.9611 18.8141 20.2885 19.0041C20.549 19.1553 20.7883 19.0217 20.8869 18.7121C20.9608 18.6137 21.0347 18.5152 21.1087 18.4167C21.8514 19.2186 21.0981 20.2668 21.5557 21.1144C21.5874 21.2024 21.6156 21.2903 21.6472 21.3817C21.7564 21.6455 21.8514 21.5857 21.9359 21.3606ZM17.849 16.848C16.536 18.4519 15.4343 20.0241 14.4416 21.6772C12.3225 25.2191 11.453 29.1408 10.9426 33.1681C10.8933 33.5444 10.7349 34.0966 11.2489 34.2021C11.6853 34.2936 11.5727 33.7765 11.6149 33.4987C12.3929 27.9766 14.4345 22.9645 17.7012 18.4483C18.0321 17.9946 18.2996 17.569 17.849 16.848Z" fill="#E30607"/>
<path d="M17.8768 14.3659C17.3345 13.9922 16.8029 13.6081 16.2498 13.2482C16.0199 13.0994 15.7074 12.9713 15.7829 12.6806C15.8798 12.3 16.1959 12.1235 16.6233 12.2273C17.356 12.691 17.7798 13.6427 18.9507 13.6392C18.4622 12.8156 17.0004 12.3242 18.2288 11.1684C18.2719 11.1303 18.2216 10.9988 18.2144 10.9123C18.7783 10.3828 18.1318 10.0437 17.9738 9.6492C17.6972 8.97093 17.3345 8.32381 16.9178 7.47597C17.9774 7.62824 18.1893 8.5522 19.0225 8.84289C18.9255 7.91892 18.8393 7.10916 18.7388 6.17135C20.0102 7.19567 19.5074 5.65572 20.1 5.5C20.1251 6.45511 21.7091 5.69379 21.6444 6.86346C22.2514 6.79771 22.1077 5.8772 22.8763 5.91873C23.2032 6.56931 22.7829 7.25104 22.8368 7.89124C23.5623 8.0089 23.3899 6.57277 24.2699 7.16106C24.8769 7.56595 25.6203 7.13338 26.2812 7.81511C27.2725 8.83943 25.746 9.09897 25.9256 9.77724L25.8933 9.82223L25.9113 9.7634C26.1303 9.75994 26.3602 9.78416 26.5721 9.74263C26.9133 9.67342 27.2797 9.31699 27.585 9.61459C27.8867 9.9122 27.4018 10.2479 27.4521 10.7324C28.4505 10.0437 29.0898 10.9504 29.7543 11.3103C30.2284 11.5698 29.3592 12.037 29.176 12.4972C29.3987 12.9852 30.6773 12.5941 30.2751 13.57C30.0488 14.1168 29.2802 14.1306 28.8241 14.5736C29.1653 15.0857 30.0237 14.7812 30.2751 15.4871C29.8154 15.9751 29.1114 15.8055 28.5906 16.0305C29.1437 16.7156 30.724 15.9509 30.7707 17.0894C30.7923 17.6881 30.293 19.0031 28.8743 18.3698C28.8887 18.8716 29.2802 18.9235 29.4849 19.1346C29.7076 19.3664 29.9662 19.6052 29.801 19.9374C29.6178 20.3077 29.2587 20.0724 28.9605 20.1035C27.9621 20.2039 26.9708 20.3804 25.94 19.3284C26.2309 20.5949 27.1073 21.3009 27.0211 22.4359C26.1303 22.2525 25.8538 21.5604 25.4012 21.0725C25.4408 20.4254 24.9415 20.0966 24.4746 19.4668C24.3776 20.0897 24.5824 20.7091 23.7958 20.678C23.7168 20.6745 23.7455 21.0725 24.0221 21.1659C24.3956 21.7092 24.3381 22.3079 24.2555 23C23.6521 22.6678 23.433 21.8234 22.6106 21.9168C22.6393 21.6538 22.6608 21.3908 22.3986 21.2074L22.3699 21.1105C22.2873 20.9894 22.2047 20.7679 22.1185 20.7645C21.8348 20.7541 21.8384 20.9894 21.8491 21.1971L21.8204 21.2317C21.7234 21.2351 21.6229 21.242 21.5259 21.249C21.4936 21.1624 21.4648 21.0759 21.4325 20.9894C21.472 20.0793 21.5187 19.1657 21.5474 18.2556C21.5546 18.0307 21.4756 17.785 21.1703 17.8922C21.0626 17.9303 21.0374 18.1829 20.9728 18.3352C20.8973 18.4321 20.8219 18.529 20.7465 18.6259C20.3478 18.5947 20.1682 18.2694 19.9132 18.048C19.8953 17.7919 19.8773 17.5393 19.863 17.2832C18.4622 17.823 18.649 16.2762 17.9343 15.9163L17.945 15.9266C17.6792 15.6706 17.611 15.4041 17.9019 15.1238C18.1641 15.1065 18.5843 15.193 18.6238 14.9231C18.6921 14.4663 18.2288 14.4317 17.8768 14.3659ZM25.6922 14.4005C25.7496 12.8744 25.2827 11.8674 23.9682 11.4625C22.9518 11.1476 21.7773 10.9781 21.0697 11.9297C20.258 13.0198 20.9189 14.1098 21.5259 15.1169C21.5941 15.2311 21.6767 15.3383 21.7701 15.4352C22.4956 16.1931 23.2786 17.0167 24.4495 16.5945C25.5377 16.1966 25.6132 15.1203 25.6922 14.4005Z" fill="white"/>
<path d="M18.0216 17C18.4941 17.7059 18.2121 18.1226 17.8677 18.5702C14.4683 22.9882 12.3436 27.8952 11.534 33.3015C11.4937 33.5736 11.6073 34.0763 11.1531 33.9902C10.6182 33.8869 10.7867 33.3463 10.8344 32.9778C11.3655 29.035 12.2703 25.1955 14.4756 21.7279C15.5086 20.1095 16.6552 18.5702 18.0216 17Z" fill="white"/>
<path d="M18.4805 11.0001C18.4882 11.0794 18.5422 11.1999 18.4959 11.2348C17.1765 12.2944 18.7467 12.7418 19.2714 13.5C18.0137 13.5 17.5623 12.6307 16.7714 12.2056C16.8563 11.7678 16.5013 11.0064 17.6665 11.349C18.1333 11.4886 18.1333 10.9937 18.4805 11.0001Z" fill="white"/>
<path d="M24.0125 21.4463C23.7604 21.3393 23.7342 20.8834 23.8063 20.8874C24.5231 20.9231 24.3365 20.2135 24.4249 19.5C24.8537 20.2214 25.3054 20.598 25.2694 21.3393C24.8635 21.6009 24.4347 21.4701 24.0125 21.4463Z" fill="white"/>
<path d="M21.2714 18.4504C21.3276 18.3042 21.3495 18.0615 21.4431 18.0249C21.7054 17.9219 21.7773 18.1579 21.771 18.374C21.746 19.2515 21.7054 20.1258 21.6711 21C21.262 20.1989 21.9303 19.2083 21.2714 18.4504Z" fill="white"/>
<path d="M19.9065 18C20.1749 18.239 20.3576 18.5901 20.7714 18.6237C20.667 18.9524 20.4172 19.0943 20.1376 18.9337C19.7909 18.7283 19.6418 18.3959 19.9065 18Z" fill="white"/>
<path d="M18.2714 14.5C18.5049 14.5459 18.8122 14.5665 18.7669 14.8668C18.7407 15.0457 18.462 14.9884 18.2881 14.9998C18.3238 14.8325 18.4 14.6628 18.2714 14.5Z" fill="white"/>
<path d="M21.7747 21.5C21.7645 21.2601 21.761 20.9922 22.0316 21.0002C22.1138 21.0042 22.1926 21.2601 22.2714 21.4C22.107 21.432 21.9426 21.468 21.7747 21.5Z" fill="white"/>
<path d="M22.3264 21.5C22.8318 21.6293 22.7967 21.8146 22.7405 22C22.165 21.878 22.2492 21.6878 22.3264 21.5Z" fill="white"/>
<path d="M25.7667 14.1926C25.6878 14.9165 25.6125 15.9938 24.5224 16.3852C23.3535 16.8077 22.5717 15.9834 21.8474 15.2248C21.7542 15.1278 21.6717 15.0204 21.6036 14.9061C20.9976 13.8982 20.3378 12.8105 21.1482 11.716C21.8546 10.7634 23.0307 10.9332 24.0419 11.2484C25.3579 11.6571 25.8241 12.6651 25.7667 14.1926ZM25.1858 13.9709C25.1464 12.9768 24.8523 12.1524 23.8483 11.8338C23.1204 11.6017 22.2239 11.3939 21.6896 12.0658C21.0227 12.9041 21.6466 13.7215 22.0912 14.487C22.1773 14.6394 22.2885 14.7849 22.414 14.9096C22.916 15.4153 23.4539 16.0907 24.232 15.8206C25.0424 15.5331 25.0747 14.6567 25.1858 13.9709Z" fill="#E30607"/>
<path d="M25.2714 14.2134C25.1579 14.8589 25.1238 15.6795 24.2612 15.9423C23.4402 16.1953 22.8764 15.5628 22.343 15.0892C22.2105 14.9724 22.097 14.8362 22.0024 14.6935C21.5371 13.9799 20.875 13.2111 21.5787 12.4262C22.1424 11.7969 23.0883 11.9915 23.8564 12.2089C24.9195 12.5105 25.226 13.2825 25.2714 14.2134Z" fill="white"/>
</svg>
