<svg width="34" height="30" viewBox="0 0 34 30" fill="none" xmlns="http://www.w3.org/2000/svg">
<path d="M25.2316 0C27.4666 0 29.6166 0.883333 31.1983 2.46833C32.7816 4.05 33.6666 6.18333 33.6666 8.41667V21.5833C33.6666 26.2333 29.8833 30 25.2316 30H8.76665C4.11498 30 0.333313 26.2333 0.333313 21.5833V8.41667C0.333313 3.76667 4.09831 0 8.76665 0H25.2316ZM27.1166 8.66667C26.7666 8.64833 26.4333 8.76667 26.1816 9L18.6666 15C17.7 15.8017 16.315 15.8017 15.3333 15L7.83331 9C7.31498 8.61667 6.59831 8.66667 6.16665 9.11667C5.71665 9.56667 5.66665 10.2833 6.04831 10.7833L6.26665 11L13.85 16.9167C14.7833 17.65 15.915 18.05 17.1 18.05C18.2816 18.05 19.4333 17.65 20.365 16.9167L27.8833 10.9L28.0166 10.7667C28.415 10.2833 28.415 9.58333 27.9983 9.1C27.7666 8.85167 27.4483 8.7 27.1166 8.66667Z" fill="#1D1A1A"/>
</svg>
