<svg width="23" height="29" viewBox="0 0 23 29" fill="none" xmlns="http://www.w3.org/2000/svg">
<path d="M21.7166 21.4029L19.8643 19.5506V12.3711C19.8643 7.96294 17.5094 4.27268 13.4027 3.29627V2.31986C13.4027 1.12807 12.4407 0.166016 11.2489 0.166016C10.0571 0.166016 9.09503 1.12807 9.09503 2.31986V3.29627C4.974 4.27268 2.63349 7.94858 2.63349 12.3711V19.5506L0.78118 21.4029C-0.123436 22.3076 0.508359 23.8583 1.78631 23.8583H20.6971C21.9894 23.8583 22.6212 22.3076 21.7166 21.4029ZM16.9925 20.9865H5.50528V12.3711C5.50528 8.81012 7.67349 5.90961 11.2489 5.90961C14.8243 5.90961 16.9925 8.81012 16.9925 12.3711V20.9865ZM11.2489 28.166C12.8284 28.166 14.1207 26.8737 14.1207 25.2942H8.37708C8.37708 26.0559 8.67964 26.7863 9.21821 27.3249C9.75677 27.8635 10.4872 28.166 11.2489 28.166Z" fill="#1D1A1A"/>
</svg>
