<svg width="41" height="40" viewBox="0 0 41 40" fill="none" xmlns="http://www.w3.org/2000/svg">
<path d="M12.3036 31.2423C11.1392 30.5455 10.1758 29.5899 9.3995 28.437C9.25642 28.2245 9.26479 28.0958 9.45125 27.8917C9.98854 27.3039 10.4863 26.6794 10.9977 26.0672C11.1293 25.9096 11.1316 25.774 11.0365 25.5616C10.6187 24.628 10.2511 23.6723 9.84699 22.7326C9.79448 22.61 9.64227 22.4608 9.52202 22.4471C8.70543 22.3519 7.88656 22.2803 7.06616 22.2239C6.85916 22.2095 6.75946 22.176 6.70999 21.9475C6.4246 20.637 6.43298 19.3333 6.7176 18.0236C6.77088 17.7776 6.90406 17.7784 7.09432 17.7662C7.86449 17.7152 8.63313 17.652 9.40178 17.5872C9.65749 17.5659 9.79143 17.4585 9.89417 17.1745C10.2267 16.2615 10.6141 15.3667 11.0167 14.4811C11.1217 14.2496 11.1354 14.0935 10.9802 13.9046C10.4185 13.2208 9.86069 12.5332 9.26708 11.8052C9.80285 10.8739 10.5509 10.0431 11.452 9.34864C11.7222 9.13999 12.0197 8.81179 12.299 8.81712C12.5578 8.82245 12.8044 9.20548 13.0647 9.41261C13.5403 9.79107 14.0144 10.1726 14.5068 10.5282C14.5966 10.5929 14.7869 10.5861 14.9018 10.5396C15.8379 10.1612 16.761 9.75223 17.7009 9.38443C17.933 9.29381 18.0586 9.19939 18.0829 8.94581C18.1682 8.06553 18.2694 7.186 18.3668 6.2844C19.3424 5.9105 21.3516 5.89832 22.7146 6.28973C22.7146 6.57529 22.6918 6.87836 22.7192 7.17687C22.7762 7.7952 22.8463 8.41277 22.9452 9.02501C22.965 9.14837 23.1195 9.31209 23.2428 9.34712C24.2603 9.6342 25.2268 10.0332 26.1454 10.5587C26.2382 10.612 26.446 10.5777 26.5365 10.5046C27.1781 9.98982 27.7983 9.44916 28.4368 8.93134C28.5297 8.85596 28.7184 8.79275 28.8082 8.83616C29.7565 9.29457 31.2565 10.8511 31.7329 11.825C31.2009 12.4647 30.6834 13.1005 30.1499 13.7234C29.8904 14.0272 29.882 14.274 30.0723 14.6562C30.4817 15.4802 30.8082 16.3468 31.1241 17.2133C31.2101 17.4486 31.3158 17.5522 31.5335 17.5712C32.3273 17.6405 33.121 17.7152 33.9163 17.7616C34.1408 17.7746 34.2428 17.8119 34.2961 18.0586C34.5685 19.3181 34.5617 20.5723 34.3265 21.8356C34.2671 22.1524 34.1279 22.211 33.8242 22.2247C33.054 22.2597 32.2869 22.3564 31.5183 22.425C31.3021 22.444 31.2139 22.5491 31.1317 22.7616C30.7679 23.7035 30.3767 24.6364 29.9688 25.56C29.8866 25.7466 29.8501 25.8715 29.9848 26.0322C30.5069 26.6513 31.0084 27.2894 31.5518 27.8887C31.7344 28.0905 31.7542 28.2131 31.6081 28.4301C30.8326 29.5845 29.8676 30.5387 28.6659 31.2598C28.188 30.8349 27.6948 30.4222 27.2314 29.9782C26.6804 29.4505 26.1834 29.302 25.452 29.7734C24.8189 30.1815 24.0327 30.3582 23.3036 30.6065C23.0654 30.6872 22.9437 30.7923 22.9231 31.0428C22.8577 31.8378 22.7671 32.6305 22.7176 33.4263C22.7032 33.6616 22.6393 33.7552 22.4094 33.8032C21.1248 34.0697 19.8447 34.0636 18.5609 33.7971C18.331 33.7491 18.3021 33.6349 18.2876 33.4308C18.229 32.6229 18.1446 31.8172 18.0746 31.01C18.0555 30.7938 17.9513 30.7016 17.7412 30.6209C16.8227 30.2676 15.9102 29.8952 15.0106 29.4954C14.7701 29.3881 14.5974 29.3607 14.3927 29.5289C13.7108 30.0955 13.0236 30.6537 12.3036 31.2423ZM20.5023 28.5078C25.1872 28.5078 29.0023 24.7102 29.0198 20.0309C29.0373 15.3423 25.2024 11.4884 20.5205 11.49C15.8097 11.4915 12.0015 15.2852 11.987 19.9913C11.9726 24.6798 15.8006 28.5078 20.5023 28.5078Z" fill="#A2A0A0"/>
<path d="M20.5395 24.8664C19.4239 24.8664 18.3074 24.8687 17.1917 24.8656C16.1742 24.8634 15.6377 24.3303 15.6354 23.3229C15.6339 22.7647 15.6423 22.2065 15.6316 21.6483C15.6278 21.4404 15.6742 21.3003 15.8698 21.1853C16.4596 20.8396 17.0304 20.4619 17.6225 20.1208C17.7169 20.066 17.9178 20.0858 18.0099 20.1535C19.6605 21.3567 21.3303 21.3559 22.9954 20.1535C23.0921 20.0835 23.3097 20.0797 23.4163 20.1406C23.9985 20.4733 24.5715 20.8252 25.1286 21.1983C25.2481 21.2782 25.3546 21.4679 25.3607 21.6118C25.3866 22.2073 25.3775 22.8043 25.3698 23.4005C25.3592 24.3075 24.7991 24.8618 23.8873 24.8656C22.7717 24.8702 21.6552 24.8664 20.5395 24.8664Z" fill="#A2A0A0"/>
<path d="M20.4627 20.1733C18.758 20.1543 17.4345 18.779 17.4611 17.055C17.487 15.3858 18.8774 14.0631 20.5791 14.0898C22.2481 14.1157 23.5685 15.5061 23.5411 17.2104C23.5152 18.8704 22.1415 20.1924 20.4627 20.1733ZM20.0692 17.5249C19.8645 17.2926 19.7138 17.1053 19.5449 16.9347C19.3508 16.739 19.1309 16.7428 18.9414 16.9347C18.7481 17.1312 18.7739 17.3505 18.9589 17.5424C19.2047 17.7982 19.4566 18.0488 19.7108 18.2955C20.0076 18.5833 20.1933 18.5894 20.4878 18.3023C20.9779 17.8241 21.4551 17.333 21.9444 16.8547C22.1682 16.6362 22.2998 16.4093 22.0609 16.1313C21.8767 15.9173 21.6225 15.96 21.3402 16.241C20.9391 16.643 20.5403 17.0489 20.0692 17.5249Z" fill="#A2A0A0"/>
</svg>
